<svg width="596" height="376" viewBox="0 0 596 376" fill="none" xmlns="http://www.w3.org/2000/svg">
<path d="M192.485 366.59C285.984 366.59 361.779 284.526 361.779 183.295C361.779 82.064 285.984 0 192.485 0C98.9869 0 23.1915 82.064 23.1915 183.295C23.1915 284.526 98.9869 366.59 192.485 366.59Z" fill="#F2F2F2"/>
<path d="M596 325.155C595.999 325.601 595.966 326.046 595.901 326.486C591.762 353.955 459.969 376 298 376C136.031 376 4.23809 353.955 0.0985592 326.486C0.0338481 326.046 0.000896083 325.601 0 325.155C0 325.029 -1.94598e-06 324.898 0.0115934 324.772C0.0115934 324.703 0.0173923 324.64 0.0173923 324.571C0.0221811 324.546 0.0241297 324.521 0.0231912 324.496C0.0463819 324.213 0.081168 323.944 0.127549 323.667C2.01759 312.438 25.2604 302.118 63.1714 293.851C94.1773 287.09 134.999 281.698 181.983 278.309C217.639 275.735 256.842 274.31 298 274.31C331.116 274.31 362.969 275.233 392.722 276.928H392.734C398.961 277.285 405.094 277.677 411.136 278.101C452.49 281.001 489.19 285.439 518.758 290.995C536.945 294.416 552.442 298.264 564.669 302.432H564.675C583.494 308.853 594.591 316.053 595.872 323.667C595.919 323.944 595.954 324.213 595.977 324.496C595.976 324.521 595.978 324.546 595.983 324.571C595.983 324.64 595.988 324.703 595.988 324.772C596 324.898 596 325.029 596 325.155Z" fill="#3F3D56"/>
<path opacity="0.1" d="M290.463 374.117C343.295 374.117 386.125 367.372 386.125 359.052C386.125 350.731 343.295 343.987 290.463 343.987C237.631 343.987 194.802 350.731 194.802 359.052C194.802 367.372 237.631 374.117 290.463 374.117Z" fill="black"/>
<path opacity="0.1" d="M564.669 302.432C561.324 303.467 557.556 304.428 553.422 305.307C536.4 308.935 513.175 311.163 487.601 311.163C459.03 311.163 433.422 308.382 416.069 303.982C401.668 300.329 392.948 295.577 392.948 290.361C392.948 285.778 399.697 281.535 411.136 278.101C452.49 281.001 489.19 285.439 518.758 290.995C536.945 294.416 552.442 298.264 564.669 302.432Z" fill="black"/>
<path opacity="0.1" d="M308.436 295.495C308.436 304.993 253.404 312.695 185.525 312.695C117.646 312.695 62.6148 304.993 62.6148 295.495C62.6294 294.896 62.8249 294.318 63.1714 293.851C94.1773 287.09 134.999 281.698 181.983 278.309C183.16 278.302 184.341 278.3 185.525 278.302C253.404 278.302 308.436 285.998 308.436 295.495Z" fill="black"/>
<path d="M265.624 210.269H241.456V294.75H265.624V210.269Z" fill="#C3B8C3"/>
<path d="M186.216 170.645H162.048V294.75H186.216V170.645Z" fill="#C3B8C3"/>
<path d="M107.498 170.645H83.33V294.75H107.498V170.645Z" fill="#C3B8C3"/>
<path d="M146.857 170.645H122.689V255.126H146.857V170.645Z" fill="#C3B8C3"/>
<path d="M225.575 170.645H201.407V195.317H225.575V170.645Z" fill="#C3B8C3"/>
<path d="M225.575 210.269H201.407V294.75H225.575V210.269Z" fill="#8A8B8C"/>
<path d="M304.983 170.645H241.456V195.317H304.983V170.645Z" fill="#C3B8C3"/>
<path d="M472.546 163.224C489.068 163.224 503.132 169.468 514.737 181.955C520.203 187.826 524.509 194.839 527.395 202.568C533.145 218.38 533.164 235.96 527.45 251.787C524.609 259.426 520.314 266.333 514.846 272.058C509.224 278.122 502.558 282.933 495.226 286.22C488.042 289.466 480.334 291.135 472.549 291.13C464.853 291.155 457.23 289.505 450.135 286.276C435.68 279.614 424.17 267.152 418.016 251.503C412.091 235.897 412.11 218.387 418.068 202.796C421.085 194.945 425.513 187.822 431.094 181.839C442.345 169.432 456.162 163.227 472.546 163.224ZM472.76 174.76C459.259 174.76 447.902 179.861 438.688 190.063C434.145 195.005 430.512 200.838 427.982 207.251C425.51 213.534 424.237 220.292 424.237 227.121C424.237 233.95 425.51 240.709 427.982 246.992C433.077 259.804 442.543 269.993 454.406 275.434C460.236 278.044 466.484 279.382 472.793 279.373C479.101 279.363 485.346 278.006 491.169 275.378C497.159 272.676 502.617 268.761 507.252 263.844C516.463 254.099 521.068 241.878 521.067 227.182C521.101 220.293 519.882 213.463 517.48 207.083C515.082 200.749 511.533 195 507.044 190.179C497.545 179.9 486.117 174.761 472.76 174.76ZM472.02 216.56L464.106 221.015C463.468 219.372 462.383 217.978 460.996 217.018C459.963 216.321 458.782 215.928 457.566 215.876C452.294 215.876 449.657 219.645 449.655 227.182C449.655 230.608 450.322 233.348 451.657 235.402C452.994 237.459 454.963 238.488 457.566 238.488C461.012 238.488 463.439 236.661 464.846 233.006L472.123 237.003C470.637 240.056 468.406 242.609 465.671 244.381C462.936 246.154 459.804 247.078 456.617 247.054C451.344 247.054 447.089 245.303 443.853 241.8C440.619 238.298 439.002 233.427 439.002 227.184C439.002 221.093 440.637 216.258 443.906 212.681C447.176 209.103 451.307 207.314 456.302 207.313C463.617 207.309 468.856 210.391 472.02 216.56ZM506.089 216.56L498.283 221.015C497.644 219.371 496.559 217.977 495.171 217.018C494.105 216.31 492.887 215.917 491.638 215.876C486.364 215.876 483.726 219.645 483.724 227.182C483.724 230.608 484.393 233.348 485.729 235.402C487.064 237.459 489.033 238.488 491.638 238.488C495.08 238.488 497.505 236.661 498.913 233.006L506.296 237.003C504.756 240.04 502.501 242.582 499.76 244.37C497.059 246.147 493.955 247.077 490.794 247.054C485.449 247.054 481.178 245.303 477.982 241.8C474.777 238.298 473.176 233.427 473.179 227.184C473.179 221.093 474.814 216.258 478.085 212.681C481.352 209.103 485.483 207.314 490.477 207.313C497.79 207.309 502.994 210.391 506.089 216.56Z" fill="#C3B8C3"/>
<path opacity="0.1" d="M436.806 320.346C436.806 350.939 397.42 341.476 349.196 341.476C300.972 341.476 262.171 350.939 262.171 320.346C262.171 289.752 301.551 283.099 349.775 283.099C398 283.099 436.806 289.752 436.806 320.346Z" fill="black"/>
<path d="M436.806 312.813C436.806 343.406 397.42 333.943 349.196 333.943C300.972 333.943 262.171 343.406 262.171 312.813C262.171 282.22 301.551 275.566 349.775 275.566C398 275.566 436.806 282.22 436.806 312.813Z" fill="#3F3D56"/>
<path d="M428.761 257.892L430.752 266.783C430.774 266.882 430.771 266.986 430.742 267.083L421.712 297.636C421.676 297.757 421.603 297.861 421.505 297.93C421.407 298 421.29 298.032 421.173 298.019C421.056 298.007 420.947 297.951 420.864 297.862C420.78 297.773 420.727 297.655 420.714 297.529L419.465 285.627C419.456 285.548 419.464 285.468 419.487 285.392L427.775 257.851C427.81 257.736 427.878 257.636 427.97 257.567C428.061 257.498 428.171 257.463 428.283 257.468C428.394 257.472 428.501 257.516 428.588 257.593C428.674 257.669 428.735 257.774 428.761 257.892V257.892Z" fill="#2F2E41"/>
<path d="M428.029 258.643L429.867 266.271L421.902 294.13L420.065 285.507L428.029 258.643Z" fill="#F2F2F2"/>
<path d="M387.901 300.1C388.207 301.095 419.758 299.768 420.065 299.437C420.332 299.021 420.558 298.577 420.739 298.11C421.027 297.447 421.29 296.783 421.29 296.783L420.065 286.044L388.82 284.844C388.82 284.844 388.039 293.944 387.879 298.11C387.825 298.772 387.832 299.439 387.901 300.1V300.1Z" fill="#2F2E41"/>
<path opacity="0.1" d="M416.083 287.497L416.695 296.783H402.91V287.497H416.083Z" fill="black"/>
<path opacity="0.1" d="M398.316 290.482L398.398 290.464L398.01 294.461H390.352V290.482H398.316Z" fill="black"/>
<path opacity="0.1" d="M387.901 300.1C388.207 301.095 419.758 299.768 420.065 299.436C420.332 299.021 420.558 298.576 420.739 298.11H387.879C387.825 298.772 387.832 299.439 387.901 300.1V300.1Z" fill="black"/>
<path d="M339.196 265.276H347.773L368.909 256.321C368.909 256.321 383.919 249.688 382.693 262.291C381.468 274.894 379.324 291.808 379.324 291.808C379.324 291.808 372.585 288.492 368.909 289.487C365.233 290.482 367.684 269.256 367.684 269.256C367.684 269.256 337.664 284.844 334.907 282.854C332.15 280.864 331.538 266.934 331.538 266.934L339.196 265.276Z" fill="#2F2E41"/>
<path opacity="0.1" d="M339.196 265.276H347.773L368.909 256.321C368.909 256.321 383.919 249.688 382.693 262.291C381.468 274.894 379.324 291.808 379.324 291.808C379.324 291.808 372.585 288.492 368.909 289.487C365.233 290.482 367.684 269.256 367.684 269.256C367.684 269.256 337.664 284.844 334.907 282.854C332.15 280.864 331.538 266.934 331.538 266.934L339.196 265.276Z" fill="black"/>
<path d="M352.709 236.194L363.089 252.341L387.288 274.231C387.288 274.231 409.65 279.869 406.587 283.849C403.523 287.829 384.838 279.869 384.838 279.869C384.838 279.869 356.962 257.979 356.043 256.321C355.124 254.663 345.016 239.075 345.016 239.075L352.709 236.194Z" fill="#A0616A"/>
<path opacity="0.1" d="M352.709 236.194L363.089 252.341L387.288 274.231C387.288 274.231 409.65 279.869 406.587 283.849C403.523 287.829 384.838 279.869 384.838 279.869C384.838 279.869 356.962 257.979 356.043 256.321C355.124 254.663 345.016 239.075 345.016 239.075L352.709 236.194Z" fill="black"/>
<path d="M351.142 218.512C358.755 218.512 364.927 211.83 364.927 203.588C364.927 195.345 358.755 188.663 351.142 188.663C343.529 188.663 337.358 195.345 337.358 203.588C337.358 211.83 343.529 218.512 351.142 218.512Z" fill="#A0616A"/>
<path d="M350.223 216.854C350.223 216.854 345.628 225.477 344.709 230.12C343.79 234.763 330.925 220.834 330.925 220.834L329.24 216.025C329.24 216.025 341.34 209.889 340.421 204.914C339.502 199.939 350.223 216.854 350.223 216.854Z" fill="#A0616A"/>
<path d="M346.547 223.155L353.286 237.417C353.286 237.417 351.755 244.381 349.304 245.045C346.854 245.708 336.439 236.422 336.439 236.422L346.547 223.155Z" fill="#D0CDE1"/>
<path d="M352.674 242.723L365.233 260.633L395.253 284.844C395.253 284.844 417.002 289.818 412.1 293.467C407.199 297.115 393.108 290.15 393.108 290.15C393.108 290.15 362.782 272.572 356.35 265.276C349.917 257.979 337.97 245.708 337.97 245.708L352.674 242.723Z" fill="#A0616A"/>
<path d="M335.826 270.582L339.502 276.884L361.44 269.411C363.816 268.58 366.331 268.317 368.811 268.64C371.29 268.964 373.676 269.867 375.801 271.287C379.63 273.899 382.081 278.045 376.567 284.18C365.539 296.452 358.188 289.818 358.188 289.818C358.188 289.818 321.122 308.723 314.996 299.436C308.87 290.15 308.563 285.507 308.563 285.507C308.563 285.507 332.15 269.587 335.826 270.582Z" fill="#2F2E41"/>
<path d="M381.774 292.472C381.774 292.472 391.577 299.437 379.936 302.753C368.296 306.07 359.719 301.426 359.719 301.426C359.719 301.426 349.611 301.426 349.611 295.788C349.611 290.15 352.98 289.487 352.98 289.487L363.395 291.145C363.395 291.145 375.954 287.497 381.774 292.472Z" fill="#D0CDE1"/>
<path d="M362.45 199.833C363.356 200.361 364.33 200.739 365.339 200.954C365.846 201.052 366.368 200.987 366.842 200.768C367.315 200.548 367.719 200.183 368.003 199.718C368.229 199.166 368.332 198.565 368.306 197.963C368.343 196.142 368.221 194.173 367.155 192.764C366.477 191.867 365.486 191.301 364.784 190.426C364.312 189.77 363.91 189.059 363.586 188.306C362.22 185.529 360.198 182.86 357.388 182.059C356.2 181.783 354.983 181.682 353.77 181.76L346.693 181.868C345.547 181.828 344.401 181.961 343.289 182.265C341.011 183.01 339.353 185.084 337.834 187.067C336.655 188.513 335.607 190.079 334.705 191.742C333.482 194.212 332.864 196.979 332.909 199.78C332.9 200.498 332.985 201.215 333.163 201.907C333.372 202.541 333.63 203.156 333.936 203.743C335.263 206.565 336.051 210.09 334.556 212.813C337.152 211.664 339.721 210.159 341.434 207.754C342.2 206.679 342.801 205.419 343.822 204.63C344.843 203.841 346.507 203.772 347.162 204.931C347.387 205.399 347.503 205.921 347.5 206.449C347.479 207.322 347.61 208.191 347.887 209.011C348.035 209.417 348.307 209.756 348.657 209.972C349.007 210.188 349.415 210.269 349.813 210.201C351.146 209.794 351.019 207.578 352.046 206.571C352.826 205.806 354.03 205.952 355.032 205.605C355.606 205.369 356.129 205.006 356.567 204.539C357.005 204.072 357.348 203.512 357.575 202.893C357.955 201.972 357.949 199.56 358.667 199.061C359.568 198.435 361.616 199.43 362.45 199.833Z" fill="#2F2E41"/>
<path d="M328.146 214.452C328.766 214.272 329.419 214.274 330.038 214.457C332.004 215.028 336.412 216.541 337.358 218.844C338.583 221.829 342.871 226.472 342.871 226.472C342.871 226.472 348.692 232.773 347.466 237.085C346.241 241.397 341.646 246.371 341.646 246.371C341.646 246.371 342.871 266.934 336.745 272.241C330.618 277.547 328.168 273.899 328.168 278.874C328.168 283.849 309.176 299.436 305.5 289.818C305.5 289.818 307.338 271.909 306.725 265.608C306.121 259.397 307.005 220.648 328.146 214.452Z" fill="#D0CDE1"/>
<path d="M337.97 222.824C337.97 222.824 356.656 237.748 353.286 244.05C353.286 244.05 341.952 250.02 339.502 249.688C337.051 249.356 327.555 237.748 325.105 236.753C322.654 235.758 321.429 217.849 337.97 222.824Z" fill="#D0CDE1"/>
<path d="M286.295 236.198C283.389 237.26 280.756 239.746 280.161 243.004C279.885 244.514 280.054 246.084 279.822 247.603C279.283 251.125 276.73 253.815 274.374 256.314C272.019 258.813 269.586 261.716 269.414 265.282C269.226 269.186 271.841 272.844 271.389 276.723C270.863 281.229 266.467 284.149 265.38 288.537C264.654 291.466 265.544 294.622 267.007 297.208C269.795 302.137 274.56 305.484 279.634 307.278C284.709 309.071 290.114 309.449 295.452 309.509C301.951 309.583 309.008 308.979 313.892 304.335C316.681 301.658 318.433 297.938 318.796 293.922C319.26 288.542 317.186 282.983 318.617 277.807C319.517 274.549 321.775 271.573 321.438 268.192C321.108 264.887 318.442 262.544 316.612 259.873C314.904 257.38 313.868 254.435 312.852 251.532L309.376 241.599C308.693 239.646 307.943 237.593 306.42 236.311C303.57 233.912 298.986 234.383 295.653 234.878C292.561 235.337 289.269 235.11 286.295 236.198Z" fill="#2F2E41"/>
<path d="M287.383 265.132C287.383 265.132 288.924 270.553 277.369 276.809C265.813 283.065 278.524 289.737 278.524 289.737L292.006 293.073C292.006 293.073 305.872 290.988 307.413 288.486C308.953 285.984 311.65 277.643 310.879 276.392C310.303 275.501 309.659 274.664 308.953 273.89C308.953 273.89 299.709 272.222 300.094 267.634C300.479 263.047 287.383 265.132 287.383 265.132Z" fill="#FFB9B9"/>
<path opacity="0.1" d="M287.383 265.132C287.383 265.132 288.924 270.553 277.369 276.809C265.813 283.065 278.524 289.737 278.524 289.737L292.006 293.073C292.006 293.073 305.872 290.988 307.413 288.486C308.953 285.984 311.65 277.643 310.879 276.392C310.303 275.501 309.659 274.664 308.953 273.89C308.953 273.89 299.709 272.222 300.094 267.634C300.479 263.047 287.383 265.132 287.383 265.132Z" fill="black"/>
<path d="M294.894 273.681C301.702 273.681 307.22 267.707 307.22 260.336C307.22 252.966 301.702 246.991 294.894 246.991C288.087 246.991 282.569 252.966 282.569 260.336C282.569 267.707 288.087 273.681 294.894 273.681Z" fill="#FFB9B9"/>
<path d="M293.546 288.486C293.546 288.486 278.702 287.311 278.421 276.221C278.421 276.221 273.132 275.558 271.591 277.226C270.05 278.894 265.043 280.145 265.043 284.316C265.043 288.486 273.517 300.997 273.517 300.997C273.517 300.997 278.139 317.679 276.213 320.598C274.287 323.517 273.902 331.024 273.902 331.024C273.902 331.024 293.161 329.356 296.242 331.024C299.324 332.692 311.65 332.692 312.42 331.024C313.19 329.356 311.65 308.504 311.65 308.504C311.65 308.504 315.116 303.499 314.346 297.661L323.59 285.984C323.59 285.984 320.124 274.724 314.731 274.724C314.731 274.724 307.413 272.639 307.22 273.681C307.027 274.724 310.879 286.401 293.546 288.486Z" fill="#FF6584"/>
<path d="M258.88 325.185C258.88 325.185 262.347 331.024 271.206 332.275C280.065 333.526 281.606 330.19 280.835 329.356C280.065 328.521 270.821 324.768 270.821 324.768L265.428 320.181L258.88 325.185Z" fill="#FFB9B9"/>
<path d="M322.05 320.181L312.035 326.436C312.035 326.436 298.939 325.602 303.946 329.773C308.953 333.943 318.198 332.275 318.198 332.275L327.057 327.687L322.05 320.181Z" fill="#FFB9B9"/>
<path d="M271.976 331.024C271.976 331.024 262.732 355.629 273.902 359.382C285.072 363.135 315.887 362.301 322.82 357.297C329.753 352.292 331.679 345.62 330.523 343.535C329.368 341.45 321.664 335.611 316.272 335.194C310.879 334.777 271.976 331.024 271.976 331.024Z" fill="#2F2E41"/>
<path opacity="0.05" d="M271.976 331.024C271.976 331.024 262.732 355.629 273.902 359.382C285.072 363.135 315.887 362.301 322.82 357.297C329.753 352.292 331.679 345.62 330.523 343.535C329.368 341.45 321.664 335.611 316.272 335.194C310.879 334.777 271.976 331.024 271.976 331.024Z" fill="black"/>
<path d="M315.612 332.552C315.612 332.552 348.242 319.764 347.857 335.194C347.471 350.624 327.057 354.795 327.057 354.795L320.894 355.629L286.998 356.88C286.998 356.88 288.154 350.207 285.457 349.373C285.457 349.373 294.317 346.871 294.702 346.454C295.087 346.037 317.042 337.696 318.583 337.279C320.124 336.862 324.746 333.526 328.212 333.943C328.212 333.943 332.064 330.607 336.301 331.441L324.361 332.275L315.612 332.552Z" fill="#2F2E41"/>
<path opacity="0.1" d="M315.612 332.552C315.612 332.552 348.242 319.764 347.857 335.194C347.471 350.624 327.057 354.795 327.057 354.795L320.894 355.629L286.998 356.88C286.998 356.88 288.154 350.207 285.457 349.373C285.457 349.373 294.317 346.871 294.702 346.454C295.087 346.037 317.042 337.696 318.583 337.279C320.124 336.862 324.746 333.526 328.212 333.943C328.212 333.943 332.064 330.607 336.301 331.441L324.361 332.275L315.612 332.552Z" fill="black"/>
<path d="M309.847 334.623L313.961 344.786L338.998 335.194L340.924 329.773L334.375 328.521L321.211 331.024L315.501 332.692L309.847 334.623Z" fill="#2F2E41"/>
<path opacity="0.1" d="M309.847 334.623L313.961 344.786L338.998 335.194L340.924 329.773L334.375 328.521L321.211 331.024L315.501 332.692L309.847 334.623Z" fill="black"/>
<path d="M256.569 346.871C256.569 346.871 263.887 356.88 272.361 359.382C280.835 361.884 285.457 358.548 285.457 358.548L282.761 346.871L281.606 339.364L276.598 335.611L266.584 330.607L254.643 326.436C254.643 326.436 249.636 325.602 249.636 326.436C249.636 327.27 254.258 339.781 254.258 339.781L256.569 346.871Z" fill="#2F2E41"/>
<path d="M265.428 352.293C265.428 352.293 266.969 364.387 268.895 365.221C270.821 366.055 276.598 364.387 278.139 363.552C279.68 362.718 284.917 358.87 284.917 358.87C284.917 358.87 266.584 351.458 265.428 352.293Z" fill="#F2F2F2"/>
<path d="M300.48 353.544L307.798 354.795L307.028 364.386L296.82 361.702L300.48 353.544Z" fill="#FFB9B9"/>
<path d="M305.065 356.213C305.065 356.213 301.635 360.633 305.102 363.135L307.413 365.221C307.413 365.221 315.116 366.889 315.887 367.723C316.657 368.557 319.738 366.472 319.738 366.472C319.738 366.472 320.124 353.961 319.738 353.127C319.353 352.293 314.731 351.458 314.346 352.293C313.961 353.127 309.339 354.378 306.642 353.544L305.065 356.213Z" fill="#F2F2F2"/>
<path d="M274.287 333.943C274.287 333.943 247.325 316.845 243.088 323.1C238.851 329.356 234.229 338.113 246.554 344.786C258.88 351.459 297.398 365.221 297.398 365.221C297.398 365.221 303.176 355.629 303.176 353.127C303.176 353.127 282.761 343.118 279.295 342.284C275.828 341.45 261.961 331.858 260.036 331.024C258.11 330.19 255.413 327.687 255.413 327.687L274.287 333.943Z" fill="#2F2E41"/>
<path d="M266.584 282.23L265.043 283.482C265.043 283.482 261.576 293.073 261.191 298.495C260.806 303.916 256.184 320.598 256.569 322.683C256.954 324.768 257.339 326.436 259.65 328.521C259.65 328.521 262.732 321.015 268.124 322.266L274.672 296.41L266.584 282.23Z" fill="#FF6584"/>
<path d="M320.509 282.23L323.59 285.984C323.59 285.984 325.516 290.988 325.516 292.239C325.516 293.49 329.368 311.84 329.753 312.674C330.138 313.508 331.679 323.934 329.753 326.436C327.827 328.938 324.361 330.607 324.361 330.607C324.361 330.607 326.672 321.849 319.353 321.432L320.124 318.095L313.19 293.073L320.509 282.23Z" fill="#FF6584"/>
<path d="M267.354 310.943V332.91C267.354 334.297 267.858 335.628 268.757 336.616C269.656 337.604 270.879 338.17 272.16 338.19L314.59 338.871C315.863 338.891 317.094 338.372 318.018 337.423C318.943 336.474 319.487 335.171 319.536 333.793L320.317 311.824C320.342 311.12 320.237 310.418 320.007 309.759C319.778 309.1 319.429 308.498 318.982 307.987C318.534 307.476 317.997 307.067 317.401 306.784C316.805 306.501 316.164 306.35 315.513 306.34L272.303 305.662C271.656 305.652 271.014 305.781 270.414 306.042C269.814 306.303 269.268 306.69 268.808 307.182C268.347 307.673 267.982 308.258 267.732 308.904C267.483 309.55 267.354 310.243 267.354 310.943V310.943Z" fill="#3F3D56"/>
<path d="M295.617 259.908C302.945 259.908 308.885 256.445 308.885 252.173C308.885 247.902 302.945 244.439 295.617 244.439C288.29 244.439 282.35 247.902 282.35 252.173C282.35 256.445 288.29 259.908 295.617 259.908Z" fill="#2F2E41"/>
<path d="M293.354 325.811C295.055 325.811 296.435 324.317 296.435 322.474C296.435 320.632 295.055 319.138 293.354 319.138C291.652 319.138 290.272 320.632 290.272 322.474C290.272 324.317 291.652 325.811 293.354 325.811Z" fill="#F2F2F2"/>
</svg>
