<svg width="615" height="637" viewBox="0 0 615 637" fill="none" xmlns="http://www.w3.org/2000/svg">
<g clip-path="url(#clip0_3_1758)">
<path d="M59.142 536.617L53.7256 514.557C44.1221 510.354 34.2967 506.713 24.2962 503.653L23.6126 513.905L20.84 502.61C8.43753 498.949 0 497.338 0 497.338C0 497.338 11.3943 542.093 35.3008 576.309L63.154 581.362L41.5156 584.584C44.5228 588.32 47.7545 591.858 51.1916 595.175C85.9648 628.508 124.696 643.801 137.7 629.333C150.703 614.865 133.055 576.117 98.2822 542.788C87.5022 532.455 73.9604 524.163 60.4045 517.635L59.142 536.617Z" fill="#F2F2F2"/>
<path d="M110.652 512.655L117.058 490.88C110.941 482.156 104.353 473.795 97.3245 465.837L91.6075 474.248L94.8871 463.099C86.1011 453.348 79.6848 447.466 79.6848 447.466C79.6848 447.466 67.0396 491.861 70.3753 533.911L91.6901 553.105L71.5503 544.312C72.255 549.117 73.2516 553.871 74.5342 558.546C87.6178 605.642 113.119 639.408 131.492 633.965C149.864 628.521 154.153 585.93 141.069 538.835C137.014 524.235 129.571 509.907 121.234 497.084L110.652 512.655Z" fill="#F2F2F2"/>
<path d="M429.144 150.906H425.765V55.3229C425.765 48.0578 424.379 40.8638 421.687 34.1517C418.995 27.4397 415.049 21.3409 410.074 16.2037C405.1 11.0665 399.194 6.99144 392.694 4.2112C386.194 1.43096 379.228 0 372.193 0H176.09C161.882 0 148.256 5.82865 138.209 16.2037C128.162 26.5788 122.518 40.6504 122.518 55.3229V579.707C122.518 586.972 123.904 594.166 126.596 600.878C129.288 607.59 133.234 613.689 138.209 618.826C143.184 623.963 149.089 628.038 155.589 630.818C162.089 633.599 169.055 635.029 176.09 635.029H372.193C386.401 635.029 400.027 629.201 410.074 618.825C420.12 608.45 425.764 594.379 425.764 579.707V218.943H429.143L429.144 150.906Z" fill="#E6E6E6"/>
<path d="M374.355 14.3878H348.759C349.936 17.3683 350.385 20.6021 350.067 23.8042C349.749 27.0063 348.673 30.0785 346.934 32.75C345.195 35.4216 342.847 37.6105 340.096 39.124C337.345 40.6375 334.276 41.429 331.159 41.4289H218.814C215.697 41.4287 212.628 40.637 209.877 39.1234C207.126 37.6098 204.778 35.4209 203.039 32.7493C201.301 30.0778 200.225 27.0058 199.907 23.8038C199.589 20.6018 200.038 17.3682 201.215 14.3878H177.307C166.697 14.3878 156.521 18.7405 149.018 26.4885C141.515 34.2365 137.3 44.7451 137.3 55.7024V579.325C137.3 590.282 141.515 600.79 149.018 608.538C156.521 616.286 166.697 620.639 177.307 620.639H374.355C384.965 620.639 395.141 616.286 402.644 608.538C410.147 600.79 414.362 590.282 414.362 579.325V55.7015C414.361 44.7443 410.146 34.236 402.644 26.4882C395.141 18.7404 384.965 14.3878 374.355 14.3878Z" fill="white"/>
<path d="M250.722 222.972C250.721 219.312 251.654 215.716 253.427 212.547C255.2 209.378 257.749 206.746 260.82 204.918C257.751 203.088 254.27 202.124 250.726 202.123C247.182 202.123 243.7 203.086 240.631 204.916C237.562 206.745 235.013 209.377 233.241 212.547C231.469 215.716 230.536 219.311 230.536 222.971C230.536 226.631 231.469 230.226 233.241 233.395C235.013 236.565 237.562 239.196 240.631 241.026C243.7 242.856 247.182 243.819 250.726 243.818C254.27 243.818 257.751 242.854 260.82 241.024C257.75 239.196 255.2 236.565 253.427 233.396C251.654 230.227 250.721 226.632 250.722 222.972Z" fill="#CCCCCC"/>
<path d="M276.1 222.972C276.1 219.312 277.033 215.716 278.805 212.547C280.578 209.378 283.128 206.746 286.198 204.918C283.13 203.088 279.648 202.124 276.104 202.123C272.56 202.123 269.079 203.086 266.009 204.916C262.94 206.745 260.391 209.377 258.619 212.547C256.847 215.716 255.914 219.311 255.914 222.971C255.914 226.631 256.847 230.226 258.619 233.395C260.391 236.565 262.94 239.196 266.009 241.026C269.079 242.856 272.56 243.819 276.104 243.818C279.648 243.818 283.13 242.854 286.198 241.024C283.128 239.196 280.578 236.565 278.806 233.396C277.033 230.227 276.1 226.632 276.1 222.972Z" fill="#CCCCCC"/>
<path d="M300.903 243.819C312.052 243.819 321.091 234.485 321.091 222.971C321.091 211.458 312.052 202.124 300.903 202.124C289.754 202.124 280.715 211.458 280.715 222.971C280.715 234.485 289.754 243.819 300.903 243.819Z" fill="#700B97"/>
<path d="M334.642 288.086H216.983C215.863 288.085 214.789 287.625 213.997 286.807C213.205 285.989 212.76 284.88 212.758 283.723V162.22C212.76 161.063 213.205 159.954 213.997 159.136C214.789 158.318 215.863 157.858 216.983 157.857H334.642C335.762 157.858 336.836 158.318 337.628 159.136C338.42 159.954 338.865 161.063 338.866 162.22V283.723C338.865 284.88 338.42 285.989 337.628 286.807C336.836 287.625 335.762 288.085 334.642 288.086ZM216.983 159.603C216.311 159.603 215.667 159.879 215.192 160.37C214.716 160.861 214.449 161.526 214.448 162.22V283.724C214.449 284.418 214.716 285.083 215.192 285.574C215.667 286.065 216.311 286.341 216.983 286.342H334.642C335.314 286.341 335.958 286.065 336.433 285.574C336.908 285.083 337.176 284.418 337.176 283.724V162.22C337.176 161.526 336.908 160.861 336.433 160.37C335.958 159.879 335.314 159.603 334.642 159.603H216.983Z" fill="#CCCCCC"/>
<path d="M360.913 381.224H180.46V382.97H360.913V381.224Z" fill="#CCCCCC"/>
<path d="M186.159 370.327C189.307 370.327 191.858 367.693 191.858 364.442C191.858 361.192 189.307 358.557 186.159 358.557C183.012 358.557 180.46 361.192 180.46 364.442C180.46 367.693 183.012 370.327 186.159 370.327Z" fill="#700B97"/>
<path d="M360.913 440.071H180.46V441.817H360.913V440.071Z" fill="#CCCCCC"/>
<path d="M186.159 429.175C189.307 429.175 191.858 426.54 191.858 423.29C191.858 420.04 189.307 417.405 186.159 417.405C183.012 417.405 180.46 420.04 180.46 423.29C180.46 426.54 183.012 429.175 186.159 429.175Z" fill="#700B97"/>
<path d="M357.611 507.084H300.583C299.598 507.082 298.653 506.678 297.957 505.959C297.26 505.239 296.868 504.264 296.867 503.247V482.606C296.868 481.588 297.26 480.613 297.957 479.894C298.653 479.174 299.598 478.77 300.583 478.769H357.611C358.596 478.77 359.54 479.174 360.237 479.894C360.933 480.613 361.325 481.588 361.326 482.606V503.247C361.325 504.264 360.933 505.239 360.237 505.959C359.54 506.678 358.596 507.082 357.611 507.084Z" fill="#700B97"/>
<path d="M204.748 370.327C207.896 370.327 210.447 367.693 210.447 364.442C210.447 361.192 207.896 358.557 204.748 358.557C201.601 358.557 199.05 361.192 199.05 364.442C199.05 367.693 201.601 370.327 204.748 370.327Z" fill="#700B97"/>
<path d="M223.338 370.327C226.485 370.327 229.037 367.693 229.037 364.442C229.037 361.192 226.485 358.557 223.338 358.557C220.19 358.557 217.639 361.192 217.639 364.442C217.639 367.693 220.19 370.327 223.338 370.327Z" fill="#700B97"/>
<path d="M204.748 429.175C207.896 429.175 210.447 426.54 210.447 423.29C210.447 420.04 207.896 417.405 204.748 417.405C201.601 417.405 199.05 420.04 199.05 423.29C199.05 426.54 201.601 429.175 204.748 429.175Z" fill="#700B97"/>
<path d="M223.338 429.175C226.485 429.175 229.037 426.54 229.037 423.29C229.037 420.04 226.485 417.405 223.338 417.405C220.19 417.405 217.639 420.04 217.639 423.29C217.639 426.54 220.19 429.175 223.338 429.175Z" fill="#700B97"/>
<path d="M612.703 637H19.8822C18.6132 637 17.5852 636.534 17.5852 635.962C17.5852 635.389 18.6132 634.922 19.8822 634.922H612.703C613.971 634.922 615 635.388 615 635.962C615 636.535 613.971 637 612.703 637Z" fill="#3F3D56"/>
<path d="M466.238 417.342C466.643 417.534 467.032 417.758 467.402 418.014L504.436 401.691L505.758 391.617L520.555 391.523L519.681 414.629L470.801 427.978C470.698 428.329 470.575 428.673 470.432 429.008C469.725 430.565 468.588 431.872 467.165 432.765C465.741 433.657 464.094 434.095 462.43 434.024C460.766 433.953 459.16 433.376 457.813 432.365C456.465 431.354 455.437 429.955 454.858 428.342C454.278 426.73 454.173 424.977 454.555 423.303C454.937 421.629 455.789 420.109 457.005 418.934C458.221 417.759 459.746 416.981 461.388 416.698C463.031 416.414 464.718 416.639 466.238 417.342Z" fill="#FFB8B8"/>
<path d="M525.936 626.72H515.814L510.998 586.4L525.938 586.401L525.936 626.72Z" fill="#FFB8B8"/>
<path d="M508.583 623.733H528.105V636.427H496.292C496.292 633.06 497.586 629.832 499.892 627.451C502.197 625.071 505.323 623.733 508.583 623.733Z" fill="#2F2E41"/>
<path d="M565.304 623.767L555.23 624.792L546.61 585.153L561.478 583.641L565.304 623.767Z" fill="#FFB8B8"/>
<path d="M547.752 622.551L567.18 620.575L568.385 633.207L536.724 636.427C536.566 634.769 536.726 633.094 537.194 631.499C537.663 629.903 538.431 628.419 539.455 627.131C540.479 625.842 541.739 624.774 543.162 623.989C544.586 623.203 546.145 622.714 547.752 622.551Z" fill="#2F2E41"/>
<path d="M528.754 348.851C539.954 348.851 549.033 339.475 549.033 327.909C549.033 316.343 539.954 306.967 528.754 306.967C517.554 306.967 508.475 316.343 508.475 327.909C508.475 339.475 517.554 348.851 528.754 348.851Z" fill="#FFB8B8"/>
<path d="M513.552 618.566C512.682 618.569 511.839 618.254 511.172 617.677C510.505 617.1 510.057 616.299 509.906 615.414C504.667 585.379 487.541 487.17 487.131 484.45C487.122 484.387 487.118 484.324 487.118 484.261V476.938C487.118 476.671 487.198 476.411 487.349 476.194L489.611 472.922C489.719 472.765 489.86 472.635 490.024 472.542C490.187 472.45 490.369 472.398 490.556 472.389C503.454 471.765 545.697 469.934 547.738 472.567C549.788 475.214 549.064 483.231 548.898 484.812L548.906 484.977L567.884 610.313C568.033 611.313 567.794 612.332 567.22 613.152C566.646 613.971 565.783 614.524 564.817 614.691L552.963 616.708C552.08 616.854 551.176 616.669 550.414 616.185C549.653 615.701 549.085 614.951 548.814 614.071C545.147 601.973 532.854 561.276 528.594 545.529C528.567 545.429 528.506 545.343 528.422 545.286C528.339 545.229 528.238 545.206 528.139 545.22C528.039 545.235 527.949 545.286 527.883 545.364C527.818 545.443 527.783 545.543 527.784 545.647C527.997 560.658 528.511 598.958 528.689 612.186L528.708 613.61C528.716 614.575 528.373 615.507 527.748 616.223C527.122 616.94 526.259 617.387 525.329 617.478L513.899 618.551C513.782 618.561 513.666 618.566 513.552 618.566Z" fill="#2F2E41"/>
<path d="M515.884 357.086C512.345 359.259 510.227 363.251 509.012 367.314C506.762 374.835 505.408 382.612 504.979 390.471L503.695 414.005L487.796 476.394C501.576 488.434 509.524 485.697 528.073 475.849C546.622 466.001 548.741 479.133 548.741 479.133L552.451 426.048L557.75 368.039C556.561 366.56 555.214 365.223 553.736 364.054C548.838 360.121 543.139 357.387 537.068 356.058C530.998 354.729 524.715 354.841 518.693 356.384L515.884 357.086Z" fill="#700B97"/>
<path d="M510.72 429.943C511.147 430.109 511.562 430.309 511.959 430.543L548.576 411.616L549.184 401.363L564.288 400.287L565.098 423.661L516.164 440.372C515.764 442.142 514.852 443.744 513.549 444.966C512.247 446.187 510.615 446.97 508.87 447.211C507.126 447.451 505.352 447.137 503.785 446.311C502.217 445.485 500.93 444.186 500.096 442.586C499.261 440.987 498.917 439.162 499.11 437.356C499.304 435.55 500.025 433.847 501.179 432.475C502.332 431.102 503.862 430.125 505.567 429.672C507.271 429.22 509.069 429.314 510.72 429.943Z" fill="#FFB8B8"/>
<path d="M557.485 368.305C566.494 371.589 568.081 407.164 568.081 407.164C557.482 401.144 544.763 410.995 544.763 410.995C544.763 410.995 542.113 401.691 538.934 389.651C537.973 386.264 537.859 382.682 538.6 379.237C539.341 375.792 540.914 372.597 543.173 369.949C543.173 369.949 548.476 365.019 557.485 368.305Z" fill="#700B97"/>
<path d="M546.938 333.448C544.411 331.36 540.964 335.154 540.964 335.154L538.942 316.367C538.942 316.367 526.309 317.93 518.223 315.846C510.138 313.761 508.875 323.413 508.875 323.413C508.458 319.514 508.373 315.585 508.622 311.671C509.127 306.975 515.697 302.278 527.319 299.146C538.942 296.015 545.006 309.584 545.006 309.584C553.092 313.758 549.464 335.535 546.938 333.448Z" fill="#2F2E41"/>
</g>
<defs>
<clipPath id="clip0_3_1758">
<rect width="615" height="637" fill="white"/>
</clipPath>
</defs>
</svg>
