<svg width="1451" height="383" viewBox="0 0 1451 383" fill="none" xmlns="http://www.w3.org/2000/svg">
<g filter="url(#filter0_d_1_76)">
<path fill-rule="evenodd" clip-rule="evenodd" d="M1447 225L1422.95 243.75C1398.9 262.5 1350.8 300 1302.7 281.25C1254.6 262.5 1206.5 187.5 1158.4 143.75C1110.3 100 1062.2 87.5 1014.1 131.25C966 175 917.9 275 869.8 268.75C821.7 262.5 773.6 150 725.5 125C677.4 100 629.3 162.5 581.2 193.75C533.1 225 485 225 436.9 218.75C388.8 212.5 340.7 200 292.6 162.5C244.5 125 196.4 62.5 148.3 31.25C100.2 0 52.1001 0 28.05 0H4V375H28.05C52.1001 375 100.2 375 148.3 375C196.4 375 244.5 375 292.6 375C340.7 375 388.8 375 436.9 375C485 375 533.1 375 581.2 375C629.3 375 677.4 375 725.5 375C773.6 375 821.7 375 869.8 375C917.9 375 966 375 1014.1 375C1062.2 375 1110.3 375 1158.4 375C1206.5 375 1254.6 375 1302.7 375C1350.8 375 1398.9 375 1422.95 375H1447V225Z" fill="#753E8E"/>
<path fill-rule="evenodd" clip-rule="evenodd" d="M1447 225L1422.95 243.75C1398.9 262.5 1350.8 300 1302.7 281.25C1254.6 262.5 1206.5 187.5 1158.4 143.75C1110.3 100 1062.2 87.5 1014.1 131.25C966 175 917.9 275 869.8 268.75C821.7 262.5 773.6 150 725.5 125C677.4 100 629.3 162.5 581.2 193.75C533.1 225 485 225 436.9 218.75C388.8 212.5 340.7 200 292.6 162.5C244.5 125 196.4 62.5 148.3 31.25C100.2 0 52.1001 0 28.05 0H4V375H28.05C52.1001 375 100.2 375 148.3 375C196.4 375 244.5 375 292.6 375C340.7 375 388.8 375 436.9 375C485 375 533.1 375 581.2 375C629.3 375 677.4 375 725.5 375C773.6 375 821.7 375 869.8 375C917.9 375 966 375 1014.1 375C1062.2 375 1110.3 375 1158.4 375C1206.5 375 1254.6 375 1302.7 375C1350.8 375 1398.9 375 1422.95 375H1447V225Z" stroke="black"/>
</g>
<defs>
<filter id="filter0_d_1_76" x="0" y="0" width="1451" height="383" filterUnits="userSpaceOnUse" color-interpolation-filters="sRGB">
<feFlood flood-opacity="0" result="BackgroundImageFix"/>
<feColorMatrix in="SourceAlpha" type="matrix" values="0 0 0 0 0 0 0 0 0 0 0 0 0 0 0 0 0 0 127 0" result="hardAlpha"/>
<feOffset dy="4"/>
<feGaussianBlur stdDeviation="2"/>
<feComposite in2="hardAlpha" operator="out"/>
<feColorMatrix type="matrix" values="0 0 0 0 0 0 0 0 0 0 0 0 0 0 0 0 0 0 0.25 0"/>
<feBlend mode="normal" in2="BackgroundImageFix" result="effect1_dropShadow_1_76"/>
<feBlend mode="normal" in="SourceGraphic" in2="effect1_dropShadow_1_76" result="shape"/>
</filter>
</defs>
</svg>
