<svg width="571" height="587" viewBox="0 0 571 587" fill="none" xmlns="http://www.w3.org/2000/svg">
<path d="M0 578.215C0 578.944 0.576833 579.53 1.29515 579.53H569.705C570.423 579.53 571 578.944 571 578.215C571 577.486 570.423 576.901 569.705 576.901H1.29515C0.576833 576.901 0 577.486 0 578.215Z" fill="#3F3D56"/>
<path d="M387.477 263.244H163.647C138.264 263.244 117.688 284.129 117.688 309.893V530.194C117.688 555.957 138.264 576.842 163.647 576.842H387.477C412.859 576.842 433.436 555.957 433.436 530.193V309.893C433.436 284.129 412.859 263.244 387.477 263.244L387.477 263.244Z" fill="white"/>
<path d="M387.477 577.946H163.647C137.705 577.946 116.6 556.524 116.6 530.193V309.893C116.6 283.562 137.705 262.14 163.647 262.14H387.477C413.419 262.14 434.524 283.562 434.524 309.893V530.193C434.524 556.524 413.419 577.946 387.477 577.946H387.477ZM163.647 264.349C138.905 264.349 118.776 284.78 118.776 309.893V530.193C118.776 555.307 138.905 575.737 163.647 575.737H387.477C412.219 575.737 432.348 555.307 432.348 530.193V309.893C432.348 284.78 412.219 264.349 387.477 264.349H163.647Z" fill="#3F3D56"/>
<path d="M403.69 358.753H313.723C309.907 358.753 306.802 355.601 306.802 351.728C306.802 347.855 309.907 344.704 313.723 344.704H403.69C407.506 344.704 410.611 347.855 410.611 351.728C410.611 355.601 407.506 358.753 403.69 358.753Z" fill="#700B97"/>
<path d="M319.289 413.992H231.836C229.631 413.992 227.837 412.171 227.837 409.934C227.837 407.696 229.631 405.876 231.836 405.876H319.289C321.493 405.876 323.287 407.696 323.287 409.934C323.287 412.171 321.493 413.992 319.289 413.992V413.992Z" fill="#700B97"/>
<path d="M195.683 278.331H145.754C145.568 278.331 145.417 278.485 145.417 278.674V284.574C145.417 284.763 145.568 284.916 145.754 284.916H195.683C195.869 284.916 196.021 284.763 196.021 284.574V278.674C196.021 278.485 195.869 278.331 195.683 278.331Z" fill="#700B97"/>
<path d="M363.859 284.916C366.726 284.916 369.049 282.558 369.049 279.648C369.049 276.739 366.726 274.38 363.859 274.38C360.993 274.38 358.669 276.739 358.669 279.648C358.669 282.558 360.993 284.916 363.859 284.916Z" fill="#3F3D56"/>
<path d="M378.132 284.916C380.998 284.916 383.322 282.558 383.322 279.648C383.322 276.739 380.998 274.38 378.132 274.38C375.266 274.38 372.942 276.739 372.942 279.648C372.942 282.558 375.266 284.916 378.132 284.916Z" fill="#3F3D56"/>
<path d="M392.405 284.916C395.271 284.916 397.595 282.558 397.595 279.648C397.595 276.739 395.271 274.38 392.405 274.38C389.539 274.38 387.215 276.739 387.215 279.648C387.215 282.558 389.539 284.916 392.405 284.916Z" fill="#3F3D56"/>
<path d="M163.102 435.717C163.102 436.446 163.679 437.032 164.397 437.032H386.727C387.445 437.032 388.022 436.446 388.022 435.717C388.022 434.988 387.445 434.403 386.727 434.403H164.397C163.679 434.403 163.102 434.988 163.102 435.717Z" fill="#3F3D56"/>
<path d="M230.908 111.476C235.642 107.507 241.496 106.768 243.985 109.826C246.473 112.884 244.653 118.579 239.918 122.55C238.048 124.162 235.824 125.297 233.434 125.858L213.17 142.421L205.715 132.603L226.483 117.317C227.477 115.04 228.995 113.037 230.908 111.476H230.908Z" fill="#A0616A"/>
<path d="M113.785 148.846C113.775 148.114 113.781 141.725 118.442 137.686C123.795 133.047 131.349 134.925 133.998 135.584C140.118 137.105 140.62 139.77 146.368 142.508C157.121 147.631 143.648 145.009 150.046 143.366C152.261 142.797 184.123 140.554 192.054 135.6C207.479 125.963 217.989 120.12 217.989 120.12L224.86 134.067C224.86 134.067 214.925 148.089 200.942 158.477C186.599 169.132 179.428 174.46 168.529 176.518C167.59 176.695 144.508 180.696 125.916 166.598C121.676 163.382 113.906 157.49 113.785 148.846L113.785 148.846Z" fill="#E6E6E6"/>
<path d="M135.098 113.374C148.317 113.374 159.033 102.498 159.033 89.0806C159.033 75.6635 148.317 64.7867 135.098 64.7867C121.879 64.7867 111.163 75.6635 111.163 89.0806C111.163 102.498 121.879 113.374 135.098 113.374Z" fill="#A0616A"/>
<path d="M322.546 252.296L297.896 226.686L285.172 240.158L303.537 264.714L321.753 266.829L322.546 252.296Z" fill="#A0616A"/>
<path d="M181.796 204.271C183.238 204.393 187.82 205.325 192.199 202.879C195.187 201.21 196.72 198.729 197.238 197.939C203.66 188.149 228.311 172.881 250.435 171.942C255.445 171.729 258.743 172.318 261.74 173.904C265.99 176.153 267.687 179.374 273.081 186.92C276.031 191.048 279.295 194.936 282.281 199.037C299.761 223.048 306.388 224.933 305.711 232.631C304.959 241.171 295.885 249.274 289.853 248.339C287.383 247.956 286.426 246.212 283.126 242.683C273.45 232.335 269.447 234.247 262.558 226.321C254.514 217.067 255.567 209.395 251.371 209.098C247.48 208.824 245.826 215.369 237.518 224.064C233.716 228.043 231.009 229.868 222.762 235.676C190.646 258.291 190.133 259.88 183.652 261.684C180.816 262.473 160.689 268.074 153.519 259.16C142.299 245.213 168.805 203.176 181.796 204.271V204.271Z" fill="#2F2E41"/>
<path d="M315.009 258.084C316.822 257.258 318.942 256.291 319.624 254.07C320.086 252.566 319.82 250.713 318.866 249.432C317.765 247.954 316.136 247.759 316.202 247.498C316.303 247.1 320.155 247.255 324.383 248.773C325.181 249.059 328.796 250.4 333.395 254.043C337.079 256.963 336.583 257.548 338.893 259.231C345.985 264.399 352.637 260.326 356.474 265.172C357.955 267.042 358.587 269.698 357.963 271.845C356.712 276.156 350.625 277.64 347.299 278.406C339.287 280.251 333.223 278.745 326.891 277.662C305.357 273.979 293.258 277.333 291.639 272.27C291.332 271.311 291.83 271.393 293.491 264.36C295.129 257.419 295.076 255.513 296.471 254.957C298.572 254.12 299.983 257.926 305.275 259.229C309.965 260.383 313.835 258.619 315.009 258.084Z" fill="#2F2E41"/>
<path d="M278.723 336.077L272.495 300.837L254.513 304.732L256.124 335.518L270.027 347.65L278.723 336.077Z" fill="#A0616A"/>
<path d="M188.829 216.117C189.955 217.039 193.23 220.421 198.207 220.894C201.603 221.216 204.244 220.037 205.109 219.679C215.84 215.238 244.684 216.655 263.51 228.487C267.773 231.167 270.176 233.534 271.779 236.555C274.052 240.838 273.674 244.47 273.962 253.788C274.119 258.885 274.669 263.963 274.871 269.059C276.052 298.89 280.492 304.226 275.673 310.21C270.326 316.848 258.334 318.381 253.861 314.169C252.029 312.444 252.202 310.456 251.424 305.655C249.142 291.578 244.772 290.878 243.456 280.393C241.921 268.152 247.037 262.403 243.728 259.766C240.66 257.321 235.671 261.794 223.986 264.254C218.639 265.379 215.389 265.347 205.352 265.451C166.266 265.859 164.963 266.882 158.602 264.68C155.819 263.717 136.066 256.88 135.064 245.418C133.497 227.482 178.686 207.806 188.829 216.117H188.829Z" fill="#2F2E41"/>
<path d="M269.286 336.571C271.243 336.92 273.531 337.329 275.325 335.879C276.538 334.899 277.344 333.213 277.263 331.61C277.17 329.76 275.93 328.67 276.129 328.491C276.433 328.219 279.534 330.543 282.193 334.209C282.695 334.9 284.945 338.07 286.734 343.706C288.167 348.222 287.433 348.424 288.414 351.133C291.423 359.451 299.18 359.872 299.674 366.069C299.865 368.461 298.919 371.018 297.215 372.439C293.794 375.294 287.937 373.052 284.76 371.79C277.11 368.75 272.926 364.048 268.286 359.543C252.505 344.222 240.638 340.101 242.1 334.989C242.376 334.021 242.743 334.372 248.008 329.499C253.204 324.69 254.214 323.082 255.676 323.417C257.878 323.922 256.939 327.876 260.598 331.97C263.84 335.598 268.018 336.344 269.286 336.571Z" fill="#2F2E41"/>
<path d="M138.361 93.725C139.293 90.3418 138.123 89.1089 139.316 87.5903C139.316 87.5903 139.796 86.9792 144.087 85.3302C142.821 77.8734 143.769 76.6125 143.769 76.6125C144.862 75.1593 147.051 74.808 148.541 74.9981C151.692 75.4002 152.25 78.2918 154.267 78.2269C157.052 78.1373 160.393 72.4775 159.356 67.5719C158.51 63.5704 154.863 60.5988 153.948 61.1144C153.042 61.6257 149.778 59.3712 148.541 59.8229C147.695 60.1314 143.717 59.721 142.815 60.1458C141.83 60.6097 139.008 63.4981 138.739 63.1342C136.864 60.6052 136.904 59.7222 135.817 59.1771C133.89 58.2113 131.794 59.9965 128.182 61.7602C120.749 65.389 118.573 63.2243 115.14 66.2804C113.406 67.8242 112.476 70.7747 110.686 76.6125C108.184 84.7766 106.933 88.8587 108.142 92.7563C109.374 96.7312 111.189 95.8661 113.867 101.474C116.849 107.717 115.822 111.345 118.639 112.775C120.817 113.88 124.316 113.176 125.637 111.16C127.899 107.709 122.052 103.039 124.047 97.5995C125.271 94.2603 129.047 91.7284 131.363 92.4335C133.982 93.2306 134.174 97.9961 135.817 97.9224C137.223 97.8592 138.199 94.3145 138.361 93.725H138.361Z" fill="#2F2E41"/>
<path d="M120.229 116.972C125.127 111.398 145.078 117.167 146.95 126.013C147.72 129.651 144.877 131.187 145.678 135.376C146.849 141.503 153.48 141.085 158.402 147.322C165.389 156.177 158.191 164.833 166.036 179.61C167.713 182.768 169.126 185.429 172.08 188.005C178.86 193.916 185.169 191.889 188.622 197.368C191.203 201.466 190.142 206.517 189.894 207.7C188.875 212.552 186.114 213.734 184.168 217.71C180.931 224.324 184.596 229.18 184.804 237.082C185.065 246.97 179.888 260.676 169.535 265.173C157.905 270.225 143.877 261.857 137.089 253.549C133.038 248.591 131.863 244.018 130.091 238.374C122.171 213.147 117.697 215.428 111.641 195.431C104.717 172.571 103.356 145.788 111.641 137.313C112.739 136.19 115.761 133.594 117.685 128.919C120.274 122.628 118.037 119.467 120.229 116.972L120.229 116.972Z" fill="#E6E6E6"/>
<path d="M192.601 246.73C196.398 251.627 196.987 257.586 193.916 260.038C190.845 262.491 185.278 260.508 181.48 255.609C179.936 253.673 178.872 251.39 178.376 248.951L162.544 227.995L170.725 221.661L186.953 242.101C189.173 243.164 191.109 244.751 192.601 246.73H192.601Z" fill="#A0616A"/>
<path d="M134.62 138.216C135.325 138.056 141.488 136.759 146.334 140.565C151.901 144.938 151.631 152.827 151.537 155.594C151.318 161.986 148.85 163.028 147.382 169.298C144.636 181.028 149.866 191.929 152.756 197.952C153.756 200.036 156.97 206.415 163.367 213.285C175.809 226.646 186.91 233.677 186.91 233.677L174.984 244.436C174.984 244.436 155.988 238.559 143.116 226.785C129.913 214.707 109.608 171.974 105.399 161.564C105.036 160.668 110.171 175.242 119.975 153.892C122.211 149.022 126.309 140.099 134.62 138.216H134.62Z" fill="#E6E6E6"/>
<path d="M298.135 465.809C290.555 466.989 285.01 471.914 285.751 476.811C286.491 481.707 293.235 484.719 300.818 483.538C303.853 483.109 306.743 481.948 309.246 480.152L341.301 474.744L339.161 461.883L307.178 466.477C304.26 465.524 301.159 465.296 298.135 465.809Z" fill="#FFB6B6"/>
<path d="M436.268 425.721L423.838 452.492L361.354 473.842L309.504 476.65L308.206 464.009L364.399 452.083L422.06 424.426L436.268 425.721Z" fill="#E6E6E6"/>
<path d="M321.023 527.37L309.864 556.02L295.423 546.026L303.956 516.044L321.023 527.37Z" fill="#FFB6B6"/>
<path d="M274.417 516.71L244.879 545.36L256.694 558.019L286.889 534.033L274.417 516.71Z" fill="#FFB6B6"/>
<path d="M441.804 423.432L441.476 421.1L433.927 406.109L408.983 412.772L413.578 433.426L441.804 423.432Z" fill="#FFB6B6"/>
<path d="M431.301 523.373L432.068 533.38C432.068 533.38 435.24 575.342 409.64 578.673C384.039 582.004 372.88 585.336 357.783 559.351L334.152 516.71L320.349 533.38L301.987 518.709C301.987 518.709 315.115 466.74 325.618 464.741C326.931 464.491 328.244 464.366 329.536 464.339C338.231 464.155 346.427 468.472 351.63 475.546L381.414 516.044L392.244 511.047L431.301 523.373Z" fill="#2F2E41"/>
<path d="M289.515 554.687L295.423 543.361L312.49 555.353C312.49 555.353 316.428 570.011 310.52 572.01C304.613 574.009 288.202 571.344 288.202 571.344C288.202 571.344 258.007 578.007 257.351 572.01C256.694 566.014 271.135 564.681 271.135 564.681L289.515 554.687Z" fill="#2F2E41"/>
<path d="M353.844 546.692L308.223 517.515L284.92 538.697L269.166 520.041C269.166 520.041 298.048 476.734 306.582 474.735C315.115 472.736 328.9 471.404 328.9 471.404L370.911 510.713L353.844 546.692V546.692Z" fill="#2F2E41"/>
<path d="M244.222 542.694L259.32 559.351L257.329 561.08C257.329 561.08 253.412 578.395 244.222 572.537C235.032 566.68 234.376 565.347 234.376 565.347C234.376 565.347 208.119 571.344 205.494 560.684C202.868 550.023 210.088 552.022 210.088 552.022L216.645 556.02L244.222 542.694H244.222Z" fill="#2F2E41"/>
<path d="M416.86 420.101C428.461 420.101 437.865 410.555 437.865 398.78C437.865 387.005 428.461 377.46 416.86 377.46C405.259 377.46 395.855 387.005 395.855 398.78C395.855 410.555 405.259 420.101 416.86 420.101Z" fill="#FFB6B6"/>
<path d="M411.937 429.096L442.132 419.768C442.132 419.768 453.948 447.751 451.979 460.41C450.009 473.069 432.068 533.38 432.068 533.38L392.244 511.047C392.244 511.047 391.588 497.721 389.619 491.725C387.65 485.728 381.414 467.406 395.198 452.082C408.983 436.758 411.937 429.096 411.937 429.096V429.096Z" fill="#E6E6E6"/>
<path d="M345.479 569C340.565 574.975 339.619 582.393 343.367 585.566C347.114 588.74 354.134 586.468 359.049 580.49C361.045 578.129 362.454 575.317 363.16 572.29L383.666 546.705L373.677 538.5L352.694 563.426C349.885 564.672 347.411 566.584 345.479 569V569Z" fill="#FFB6B6"/>
<path d="M435.098 442.538L442.235 471.232L407.304 527.987L371.644 564.364L360.086 554.631L396.049 509.212L423.309 450.691L435.098 442.538Z" fill="#E6E6E6"/>
<path d="M397.496 395.116C402.883 395.103 403.189 395.139 404.06 395.116C410.741 394.937 412.489 392.269 415.875 392.451C421.92 392.776 413.942 423.536 410.624 437.757C407.37 451.704 418.367 464.202 419.157 465.074C430.32 477.396 449.927 479.649 453.291 474.402C456.014 470.155 446.363 463.697 448.696 454.414C450.977 445.339 461.507 446.306 464.45 437.757C467.533 428.805 457.174 424.289 450.666 402.445C446.928 389.9 447.589 387.562 444.101 379.792C434.779 359.022 389.084 367.865 394.214 387.121C395.206 390.845 392.565 395.128 397.496 395.116Z" fill="#2F2E41"/>
<path d="M464.571 142.013H243.808C237.565 142.013 232.486 136.857 232.486 130.521V11.4921C232.486 5.1557 237.565 0 243.808 0H464.571C470.814 0 475.893 5.15569 475.893 11.4921V130.521C475.893 136.857 470.814 142.013 464.571 142.013Z" fill="white"/>
<path d="M464.571 142.013H243.808C237.565 142.013 232.486 136.857 232.486 130.521V11.4921C232.486 5.1557 237.565 0 243.808 0H464.571C470.814 0 475.893 5.15569 475.893 11.4921V130.521C475.893 136.857 470.814 142.013 464.571 142.013ZM243.808 1.91909C238.608 1.91909 234.377 6.21363 234.377 11.4921V130.521C234.377 135.799 238.608 140.094 243.808 140.094H464.571C469.771 140.094 474.002 135.799 474.002 130.521V11.4921C474.002 6.21363 469.771 1.91909 464.571 1.91909H243.808Z" fill="#3F3D56"/>
<path d="M447.532 14.3933C449.099 14.3933 450.368 13.1044 450.368 11.5146C450.368 9.92479 449.099 8.63599 447.532 8.63599C445.966 8.63599 444.696 9.92479 444.696 11.5146C444.696 13.1044 445.966 14.3933 447.532 14.3933Z" fill="#3F3D56"/>
<path d="M455.095 14.3933C456.661 14.3933 457.931 13.1044 457.931 11.5146C457.931 9.92479 456.661 8.63599 455.095 8.63599C453.529 8.63599 452.259 9.92479 452.259 11.5146C452.259 13.1044 453.529 14.3933 455.095 14.3933Z" fill="#3F3D56"/>
<path d="M462.658 14.3933C464.224 14.3933 465.494 13.1044 465.494 11.5146C465.494 9.92479 464.224 8.63599 462.658 8.63599C461.092 8.63599 459.822 9.92479 459.822 11.5146C459.822 13.1044 461.092 14.3933 462.658 14.3933Z" fill="#3F3D56"/>
<path d="M248.557 58.0526C247.775 58.0526 247.139 58.6982 247.139 59.4919C247.139 59.8789 247.286 60.2369 247.553 60.5011C247.823 60.7813 248.176 60.9312 248.557 60.9312H460.767C461.549 60.9312 462.185 60.2856 462.185 59.4919C462.185 59.1049 462.038 58.747 461.771 58.4827C461.501 58.2025 461.148 58.0526 460.767 58.0526H248.557Z" fill="#E6E6E6"/>
<path d="M434.297 57.5728V61.4109H248.557C248.037 61.4109 247.564 61.1998 247.224 60.8448C246.874 60.4994 246.666 60.0196 246.666 59.4918C246.666 58.4363 247.517 57.5728 248.557 57.5728H434.297Z" fill="#700B97"/>
<path d="M458.404 50.3762H439.497C437.412 50.3762 435.715 48.6548 435.715 46.538C435.715 44.4212 437.412 42.6998 439.497 42.6998H458.404C460.489 42.6998 462.185 44.4212 462.185 46.538C462.185 48.6548 460.489 50.3762 458.404 50.3762Z" fill="#E6E6E6"/>
<path d="M334.562 30.2257H249.975C247.89 30.2257 246.194 28.5043 246.194 26.3875C246.194 24.2707 247.89 22.5493 249.975 22.5493H334.562C336.647 22.5493 338.343 24.2707 338.343 26.3875C338.343 28.5043 336.647 30.2257 334.562 30.2257Z" fill="#E6E6E6"/>
<path d="M248.557 101.232C247.775 101.232 247.139 101.878 247.139 102.671C247.139 103.059 247.286 103.416 247.553 103.681C247.823 103.961 248.176 104.111 248.557 104.111H460.767C461.549 104.111 462.185 103.465 462.185 102.671C462.185 102.284 462.038 101.927 461.771 101.662C461.501 101.382 461.148 101.232 460.767 101.232H248.557Z" fill="#E6E6E6"/>
<path d="M361.505 100.752V104.591H248.557C248.037 104.591 247.564 104.38 247.224 104.024C246.874 103.679 246.666 103.199 246.666 102.672C246.666 101.616 247.517 100.752 248.557 100.752H361.505Z" fill="#700B97"/>
<path d="M458.404 93.5558H439.497C437.412 93.5558 435.715 91.8344 435.715 89.7176C435.715 87.6008 437.412 85.8794 439.497 85.8794H458.404C460.489 85.8794 462.185 87.6008 462.185 89.7176C462.185 91.8344 460.489 93.5558 458.404 93.5558Z" fill="#E6E6E6"/>
</svg>
